<svg width="110" height="98" viewBox="0 0 110 98" fill="none" xmlns="http://www.w3.org/2000/svg">
<rect width="110" height="98" fill="#0E0E0E"/>
<path d="M62.123 26.863L54.7942 38.0274" stroke="#6ACC34" stroke-width="2.31405" stroke-linecap="round"/>
<path d="M54.3146 37.7534L46.9858 26.589" stroke="#6ACC34" stroke-width="2.31405" stroke-linecap="round"/>
<circle cx="54.863" cy="15.8356" r="3.83562" fill="#6ACC34"/>
<circle cx="46.2328" cy="24.6027" r="3.83562" fill="#6ACC34"/>
<path d="M54.6572 17.5479V65.9725" stroke="#6ACC34" stroke-width="2.31405" stroke-linecap="round"/>
<circle cx="63.4931" cy="24.6027" r="3.83562" fill="#6ACC34"/>
<path d="M78.1504 42.411C71.7806 42.411 62.8217 40.7945 60.1367 50.7671" stroke="#6ACC34" stroke-width="2.31405" stroke-linecap="round"/>
<circle cx="81.164" cy="42.137" r="3.83562" fill="#6ACC34"/>
<circle cx="72.2597" cy="33.3699" r="3.83562" fill="#6ACC34"/>
<path d="M60.0681 58.8494V44.2603C60.0681 40.6987 62.4654 35.0138 70.6161 34.4658" stroke="#6ACC34" stroke-width="2.31405" stroke-linecap="round"/>
<path d="M31.8491 42.4111C38.219 42.4111 47.1779 40.7261 49.8628 50.6987" stroke="#6ACC34" stroke-width="2.31405" stroke-linecap="round"/>
<circle cx="3.83562" cy="3.83562" r="3.83562" transform="matrix(-1 0 0 1 32.6711 38.3014)" fill="#6ACC34"/>
<circle cx="3.83562" cy="3.83562" r="3.83562" transform="matrix(-1 0 0 1 41.5754 29.5343)" fill="#6ACC34"/>
<path d="M49.9314 58.8494V44.2603C49.9314 40.6987 47.5341 35.0138 39.3835 34.4658" stroke="#6ACC34" stroke-width="2.31405" stroke-linecap="round"/>
<g clip-path="url(#clip0_1408_65)">
<path d="M80.5253 43.4155H79.886" stroke="#0E0E0E" stroke-width="0.330579" stroke-linecap="round" stroke-linejoin="round"/>
<path d="M80.5433 42.955C80.5123 42.9217 80.4736 42.8966 80.4305 42.882C80.3874 42.8674 80.3414 42.8638 80.2966 42.8714C80.2517 42.8791 80.2095 42.8978 80.1737 42.9258C80.1379 42.9538 80.1096 42.9904 80.0914 43.032C80.0733 43.0737 80.0657 43.1193 80.0696 43.1646C80.0734 43.2099 80.0885 43.2536 80.1134 43.2916C80.1383 43.3297 80.1723 43.3609 80.2123 43.3825C80.2523 43.4042 80.2971 43.4155 80.3426 43.4155" stroke="#0E0E0E" stroke-width="0.330579" stroke-linecap="round" stroke-linejoin="round"/>
<path d="M80.251 40.6758V42.3196" stroke="#0E0E0E" stroke-width="0.330579" stroke-linecap="round" stroke-linejoin="round"/>
<path d="M81.7124 42.3195H82.0572C82.1054 42.3195 82.1528 42.3068 82.1945 42.2827C82.2363 42.2585 82.2709 42.2238 82.2949 42.182C82.3189 42.1402 82.3315 42.0928 82.3313 42.0446C82.3311 41.9964 82.3183 41.9491 82.294 41.9075L81.8951 41.2236" stroke="#0E0E0E" stroke-width="0.330579" stroke-linecap="round" stroke-linejoin="round"/>
<path d="M80.9819 42.3214V42.3196" stroke="#0E0E0E" stroke-width="0.330579" stroke-linecap="round" stroke-linejoin="round"/>
</g>
<g clip-path="url(#clip1_1408_65)">
<path d="M47.3285 23.3242H45.3193H45.8673C46.061 23.3242 46.2469 23.4012 46.3839 23.5382C46.5209 23.6752 46.5979 23.861 46.5979 24.0548C46.5979 24.2486 46.5209 24.4344 46.3839 24.5714C46.2469 24.7084 46.061 24.7854 45.8673 24.7854H45.3193L46.4152 25.8813" stroke="#0E0E0E" stroke-width="0.330579" stroke-linecap="round" stroke-linejoin="round"/>
<path d="M45.3193 24.0547H47.3285" stroke="#0E0E0E" stroke-width="0.330579" stroke-linecap="round" stroke-linejoin="round"/>
</g>
<g clip-path="url(#clip2_1408_65)">
<path d="M72.2604 34.6484V33.3698M72.2604 33.3698L71.3472 32.0913M72.2604 33.3698L73.1737 32.0913" stroke="#0E0E0E" stroke-width="0.330579" stroke-linecap="round" stroke-linejoin="round"/>
<path d="M71.5293 34.2831H72.9905" stroke="#0E0E0E" stroke-width="0.330579" stroke-linecap="round" stroke-linejoin="round"/>
<path d="M71.5293 33.5525H72.9905" stroke="#0E0E0E" stroke-width="0.330579" stroke-linecap="round" stroke-linejoin="round"/>
</g>
<g clip-path="url(#clip3_1408_65)">
<path d="M38.6893 32.4566C38.5351 32.2804 38.3398 32.1612 38.1279 32.114C37.9159 32.0668 37.6967 32.0936 37.4978 32.1911C37.2988 32.2887 37.129 32.4526 37.0096 32.6622C36.8901 32.8719 36.8264 33.1181 36.8264 33.3698C36.8264 33.6216 36.8901 33.8678 37.0096 34.0775C37.129 34.2871 37.2988 34.451 37.4978 34.5486C37.6967 34.6461 37.9159 34.6729 38.1279 34.6257C38.3398 34.5785 38.5351 34.4593 38.6893 34.2831" stroke="#0E0E0E" stroke-width="0.330579" stroke-linecap="round" stroke-linejoin="round"/>
<path d="M37.9221 33.0045H36.4609M36.4609 33.7351H37.9221" stroke="#0E0E0E" stroke-width="0.330579" stroke-linecap="round" stroke-linejoin="round"/>
</g>
<g clip-path="url(#clip4_1408_65)">
<path d="M27.3745 41.0411L27.9672 43.1157C27.9763 43.1476 27.9954 43.1757 28.0217 43.196C28.0479 43.2163 28.08 43.2276 28.1132 43.2283C28.1463 43.229 28.1789 43.2191 28.206 43.2C28.2331 43.1808 28.2534 43.1535 28.2638 43.1221L28.8357 41.4064L29.4076 43.1221C29.418 43.1535 29.4383 43.1808 29.4654 43.2C29.4925 43.2191 29.5251 43.229 29.5582 43.2283C29.5914 43.2276 29.6235 43.2163 29.6497 43.196C29.676 43.1757 29.6951 43.1476 29.7042 43.1157L30.2969 41.0411" stroke="#0E0E0E" stroke-width="0.330579" stroke-linecap="round" stroke-linejoin="round"/>
<path d="M30.4796 41.7716H27.1919" stroke="#0E0E0E" stroke-width="0.330579" stroke-linecap="round" stroke-linejoin="round"/>
<path d="M30.4796 42.5022H27.1919" stroke="#0E0E0E" stroke-width="0.330579" stroke-linecap="round" stroke-linejoin="round"/>
</g>
<g clip-path="url(#clip5_1408_65)">
<path d="M64.4063 25.7898C64.263 25.8555 64.1073 25.8895 63.9497 25.8895C63.792 25.8895 63.6363 25.8555 63.493 25.7898C63.3433 25.7381 63.184 25.7195 63.0264 25.7353C62.8687 25.7511 62.7164 25.8008 62.5798 25.8812C62.6776 25.8473 62.7638 25.7865 62.8284 25.7057C62.8931 25.6248 62.9335 25.5274 62.9451 25.4245V24.0547C62.946 23.8947 62.9995 23.7394 63.0973 23.6127C63.195 23.486 63.3317 23.395 63.4862 23.3535C63.6408 23.312 63.8047 23.3224 63.9527 23.3831C64.1008 23.4438 64.2248 23.5514 64.3058 23.6894M63.8401 24.7853H62.5615" stroke="#0E0E0E" stroke-width="0.330579" stroke-linecap="round" stroke-linejoin="round"/>
</g>
<g clip-path="url(#clip6_1408_65)">
<path d="M55.7209 15.105C55.6846 15.0019 55.6182 14.912 55.5303 14.8469C55.4424 14.7818 55.337 14.7445 55.2278 14.7397H54.4972C54.3518 14.7397 54.2125 14.7975 54.1097 14.9002C54.0069 15.003 53.9492 15.1424 53.9492 15.2877C53.9492 15.433 54.0069 15.5724 54.1097 15.6751C54.2125 15.7779 54.3518 15.8356 54.4972 15.8356H55.2278C55.3731 15.8356 55.5125 15.8934 55.6152 15.9961C55.718 16.0989 55.7757 16.2383 55.7757 16.3836C55.7757 16.5289 55.718 16.6683 55.6152 16.771C55.5125 16.8738 55.3731 16.9315 55.2278 16.9315H54.4972C54.3879 16.9268 54.2825 16.8895 54.1946 16.8244C54.1068 16.7593 54.0404 16.6694 54.004 16.5662" stroke="#0E0E0E" stroke-width="0.330579" stroke-linecap="round" stroke-linejoin="round"/>
<path d="M54.8625 14.1918V14.7397M54.8625 16.9315V17.4794" stroke="#0E0E0E" stroke-width="0.330579" stroke-linecap="round" stroke-linejoin="round"/>
</g>
<path d="M12.3977 77.8042V76.6998H18.2003V77.8042H15.9524V83.9725H14.6456V77.8042H12.3977ZM20.5476 80.7765V83.9725H19.2621V76.6998H20.5192V79.4448H20.5831C20.7109 79.1371 20.9086 78.8944 21.1761 78.7169C21.446 78.5369 21.7893 78.447 22.206 78.447C22.5848 78.447 22.915 78.5263 23.1967 78.6849C23.4785 78.8435 23.6963 79.0755 23.8501 79.3809C24.0064 79.6863 24.0845 80.0592 24.0845 80.4995V83.9725H22.799V80.6984C22.799 80.3314 22.7043 80.0462 22.5149 79.8426C22.3279 79.6366 22.0651 79.5336 21.7266 79.5336C21.4993 79.5336 21.2957 79.5833 21.1158 79.6828C20.9382 79.7798 20.7985 79.9207 20.6967 80.1053C20.5973 80.29 20.5476 80.5137 20.5476 80.7765ZM27.8097 84.0791C27.2628 84.0791 26.7905 83.9654 26.3928 83.7382C25.9974 83.5085 25.6932 83.1842 25.4801 82.7651C25.267 82.3437 25.1605 81.8478 25.1605 81.2772C25.1605 80.7161 25.267 80.2237 25.4801 79.7999C25.6955 79.3738 25.9962 79.0424 26.3821 78.8056C26.768 78.5665 27.2214 78.447 27.7422 78.447C28.0784 78.447 28.3956 78.5014 28.6939 78.6103C28.9946 78.7169 29.2597 78.8826 29.4893 79.1075C29.7214 79.3324 29.9036 79.6188 30.0362 79.9669C30.1688 80.3125 30.2351 80.7244 30.2351 81.2026V81.5968H25.7642V80.7303H29.0028C29.0005 80.4841 28.9472 80.2651 28.843 80.0734C28.7389 79.8793 28.5933 79.7266 28.4062 79.6153C28.2216 79.504 28.0062 79.4484 27.7599 79.4484C27.4972 79.4484 27.2663 79.5123 27.0675 79.6401C26.8686 79.7656 26.7135 79.9313 26.6023 80.1373C26.4934 80.3409 26.4377 80.5646 26.4354 80.8085V81.5649C26.4354 81.8821 26.4934 82.1544 26.6094 82.3816C26.7254 82.6065 26.8875 82.7794 27.0959 82.9001C27.3042 83.0185 27.5481 83.0776 27.8274 83.0776C28.0144 83.0776 28.1837 83.0516 28.3352 82.9995C28.4867 82.9451 28.6181 82.8658 28.7294 82.7616C28.8407 82.6574 28.9247 82.5284 28.9815 82.3745L30.1818 82.5095C30.1061 82.8267 29.9616 83.1037 29.7486 83.3404C29.5379 83.5748 29.268 83.7571 28.9389 83.8873C28.6098 84.0151 28.2334 84.0791 27.8097 84.0791ZM40.085 79.1536H38.7569C38.719 78.9358 38.6492 78.7429 38.5474 78.5748C38.4456 78.4044 38.319 78.2599 38.1674 78.1416C38.0159 78.0232 37.8431 77.9344 37.649 77.8752C37.4572 77.8137 37.2501 77.7829 37.0275 77.7829C36.6322 77.7829 36.2818 77.8823 35.9764 78.0812C35.671 78.2777 35.4319 78.5665 35.2591 78.9477C35.0862 79.3265 34.9998 79.7893 34.9998 80.3362C34.9998 80.8925 35.0862 81.3613 35.2591 81.7424C35.4342 82.1212 35.6734 82.4077 35.9764 82.6018C36.2818 82.7936 36.631 82.8894 37.024 82.8894C37.2418 82.8894 37.4454 82.861 37.6348 82.8042C37.8265 82.745 37.9982 82.6586 38.1497 82.545C38.3036 82.4313 38.4326 82.2917 38.5368 82.1259C38.6433 81.9602 38.7167 81.7708 38.7569 81.5578L40.085 81.5649C40.0353 81.9105 39.9276 82.2348 39.7619 82.5379C39.5985 82.8409 39.3843 83.1084 39.1191 83.3404C38.854 83.5701 38.5439 83.75 38.1887 83.8802C37.8336 84.008 37.4395 84.072 37.0062 84.072C36.367 84.072 35.7965 83.924 35.2946 83.6281C34.7927 83.3321 34.3973 82.9048 34.1085 82.3461C33.8197 81.7874 33.6752 81.1174 33.6752 80.3362C33.6752 79.5526 33.8208 78.8826 34.112 78.3262C34.4032 77.7675 34.7998 77.3402 35.3017 77.0443C35.8036 76.7483 36.3717 76.6004 37.0062 76.6004C37.411 76.6004 37.7875 76.6572 38.1355 76.7708C38.4835 76.8845 38.7936 77.0514 39.0659 77.2715C39.3381 77.4893 39.5618 77.7569 39.737 78.0741C39.9146 78.389 40.0306 78.7488 40.085 79.1536ZM42.8043 84.0826C42.4587 84.0826 42.1474 84.0211 41.8704 83.898C41.5958 83.7725 41.378 83.5878 41.217 83.344C41.0584 83.1001 40.979 82.7995 40.979 82.442C40.979 82.1342 41.0359 81.8797 41.1495 81.6785C41.2631 81.4773 41.4182 81.3163 41.6147 81.1955C41.8112 81.0748 42.0326 80.9837 42.2788 80.9221C42.5273 80.8582 42.7842 80.812 43.0494 80.7836C43.369 80.7505 43.6282 80.7209 43.8271 80.6948C44.0259 80.6664 44.1703 80.6238 44.2603 80.567C44.3526 80.5078 44.3988 80.4167 44.3988 80.2936V80.2723C44.3988 80.0047 44.3195 79.7976 44.1609 79.6508C44.0022 79.504 43.7738 79.4306 43.4755 79.4306C43.1606 79.4306 42.9109 79.4993 42.7262 79.6366C42.5439 79.7739 42.4208 79.9361 42.3569 80.1231L41.1566 79.9526C41.2513 79.6212 41.4076 79.3442 41.6254 79.1217C41.8432 78.8968 42.1095 78.7287 42.4244 78.6174C42.7392 78.5038 43.0872 78.447 43.4684 78.447C43.7312 78.447 43.9928 78.4777 44.2532 78.5393C44.5136 78.6008 44.7515 78.7026 44.967 78.8447C45.1824 78.9844 45.3552 79.1749 45.4854 79.4164C45.618 79.6579 45.6843 79.9597 45.6843 80.322V83.9725H44.4485V83.2232H44.4059C44.3278 83.3748 44.2177 83.5168 44.0756 83.6494C43.936 83.7796 43.7596 83.8849 43.5465 83.9654C43.3358 84.0436 43.0884 84.0826 42.8043 84.0826ZM43.1381 83.138C43.3962 83.138 43.6199 83.0871 43.8093 82.9853C43.9987 82.8812 44.1443 82.7438 44.2461 82.5734C44.3503 82.4029 44.4023 82.2171 44.4023 82.0159V81.3731C44.3621 81.4062 44.2934 81.437 44.1964 81.4654C44.1017 81.4938 43.9951 81.5187 43.8768 81.54C43.7584 81.5613 43.6412 81.5803 43.5252 81.5968C43.4092 81.6134 43.3086 81.6276 43.2234 81.6394C43.0316 81.6655 42.86 81.7081 42.7085 81.7673C42.5569 81.8265 42.4374 81.9093 42.3498 82.0159C42.2622 82.12 42.2184 82.255 42.2184 82.4207C42.2184 82.6574 42.3048 82.8362 42.4776 82.9569C42.6504 83.0776 42.8706 83.138 43.1381 83.138ZM49.7006 78.518V79.5123H46.565V78.518H49.7006ZM47.3391 77.2112H48.6246V82.3319C48.6246 82.5047 48.6507 82.6373 48.7028 82.7296C48.7572 82.8196 48.8282 82.8812 48.9158 82.9143C49.0034 82.9474 49.1005 82.964 49.207 82.964C49.2875 82.964 49.3609 82.9581 49.4272 82.9463C49.4959 82.9344 49.5479 82.9238 49.5835 82.9143L49.8001 83.9193C49.7314 83.9429 49.6332 83.969 49.5053 83.9974C49.3799 84.0258 49.226 84.0424 49.0437 84.0471C48.7217 84.0566 48.4317 84.008 48.1737 83.9015C47.9156 83.7926 47.7108 83.6245 47.5593 83.3973C47.4102 83.17 47.3368 82.8859 47.3391 82.545V77.2112ZM52.3453 84.0826C51.9997 84.0826 51.6884 84.0211 51.4114 83.898C51.1368 83.7725 50.919 83.5878 50.758 83.344C50.5994 83.1001 50.5201 82.7995 50.5201 82.442C50.5201 82.1342 50.5769 81.8797 50.6905 81.6785C50.8042 81.4773 50.9592 81.3163 51.1557 81.1955C51.3522 81.0748 51.5736 80.9837 51.8198 80.9221C52.0684 80.8582 52.3252 80.812 52.5904 80.7836C52.91 80.7505 53.1692 80.7209 53.3681 80.6948C53.5669 80.6664 53.7114 80.6238 53.8013 80.567C53.8936 80.5078 53.9398 80.4167 53.9398 80.2936V80.2723C53.9398 80.0047 53.8605 79.7976 53.7019 79.6508C53.5433 79.504 53.3148 79.4306 53.0165 79.4306C52.7016 79.4306 52.4519 79.4993 52.2672 79.6366C52.0849 79.7739 51.9618 79.9361 51.8979 80.1231L50.6976 79.9526C50.7923 79.6212 50.9486 79.3442 51.1664 79.1217C51.3842 78.8968 51.6505 78.7287 51.9654 78.6174C52.2802 78.5038 52.6283 78.447 53.0094 78.447C53.2722 78.447 53.5338 78.4777 53.7942 78.5393C54.0546 78.6008 54.2926 78.7026 54.508 78.8447C54.7234 78.9844 54.8962 79.1749 55.0265 79.4164C55.159 79.6579 55.2253 79.9597 55.2253 80.322V83.9725H53.9895V83.2232H53.9469C53.8688 83.3748 53.7587 83.5168 53.6167 83.6494C53.477 83.7796 53.3006 83.8849 53.0875 83.9654C52.8768 84.0436 52.6294 84.0826 52.3453 84.0826ZM52.6792 83.138C52.9372 83.138 53.1609 83.0871 53.3503 82.9853C53.5397 82.8812 53.6853 82.7438 53.7871 82.5734C53.8913 82.4029 53.9434 82.2171 53.9434 82.0159V81.3731C53.9031 81.4062 53.8345 81.437 53.7374 81.4654C53.6427 81.4938 53.5362 81.5187 53.4178 81.54C53.2994 81.5613 53.1822 81.5803 53.0662 81.5968C52.9502 81.6134 52.8496 81.6276 52.7644 81.6394C52.5726 81.6655 52.401 81.7081 52.2495 81.7673C52.098 81.8265 51.9784 81.9093 51.8908 82.0159C51.8032 82.12 51.7594 82.255 51.7594 82.4207C51.7594 82.6574 51.8458 82.8362 52.0186 82.9569C52.1915 83.0776 52.4116 83.138 52.6792 83.138ZM57.8034 76.6998V83.9725H56.5179V76.6998H57.8034ZM59.9244 86.018C59.7492 86.018 59.587 86.0038 59.4379 85.9754C59.2911 85.9493 59.1739 85.9186 59.0863 85.883L59.3846 84.8816C59.5716 84.9361 59.7385 84.9621 59.8853 84.9598C60.0321 84.9574 60.1611 84.9112 60.2724 84.8213C60.386 84.7337 60.4819 84.5869 60.56 84.3809L60.6701 84.0862L58.6921 78.518H60.0558L61.3129 82.6373H61.3697L62.6303 78.518H63.9975L61.8136 84.633C61.7118 84.9219 61.5768 85.1693 61.4087 85.3752C61.2406 85.5836 61.0347 85.7422 60.7908 85.8511C60.5494 85.9624 60.2605 86.018 59.9244 86.018ZM69.1982 79.9598L68.0263 80.0876C67.9931 79.9692 67.9351 79.858 67.8523 79.7538C67.7718 79.6496 67.6629 79.5656 67.5256 79.5017C67.3883 79.4377 67.2202 79.4058 67.0213 79.4058C66.7538 79.4058 66.5289 79.4638 66.3466 79.5798C66.1667 79.6958 66.0779 79.8461 66.0803 80.0308C66.0779 80.1894 66.1359 80.3184 66.2543 80.4178C66.375 80.5173 66.5739 80.599 66.8509 80.6629L67.7812 80.8617C68.2973 80.973 68.6809 81.1494 68.9318 81.3909C69.1851 81.6323 69.313 81.9484 69.3153 82.339C69.313 82.6823 69.2124 82.9853 69.0135 83.2481C68.817 83.5085 68.5436 83.7121 68.1932 83.8589C67.8428 84.0057 67.4403 84.0791 66.9858 84.0791C66.3182 84.0791 65.7808 83.9394 65.3736 83.66C64.9664 83.3783 64.7237 82.9865 64.6456 82.4846L65.8991 82.3639C65.956 82.6101 66.0767 82.7959 66.2614 82.9214C66.446 83.0469 66.6863 83.1096 66.9822 83.1096C67.2876 83.1096 67.5327 83.0469 67.7173 82.9214C67.9044 82.7959 67.9979 82.6409 67.9979 82.4562C67.9979 82.2999 67.9375 82.1709 67.8168 82.0691C67.6984 81.9673 67.5137 81.8892 67.2628 81.8347L66.3324 81.6394C65.8092 81.5305 65.4221 81.3471 65.1712 81.089C64.9202 80.8286 64.7959 80.4995 64.7983 80.1018C64.7959 79.7656 64.8871 79.4744 65.0717 79.2282C65.2588 78.9796 65.518 78.7879 65.8494 78.6529C66.1832 78.5156 66.5679 78.447 67.0036 78.447C67.6428 78.447 68.1458 78.5831 68.5128 78.8553C68.8821 79.1276 69.1106 79.4957 69.1982 79.9598ZM73.0991 78.518V79.5123H69.9634V78.518H73.0991ZM70.7376 77.2112H72.0231V82.3319C72.0231 82.5047 72.0491 82.6373 72.1012 82.7296C72.1557 82.8196 72.2267 82.8812 72.3143 82.9143C72.4019 82.9474 72.4989 82.964 72.6055 82.964C72.686 82.964 72.7594 82.9581 72.8256 82.9463C72.8943 82.9344 72.9464 82.9238 72.9819 82.9143L73.1985 83.9193C73.1299 83.9429 73.0316 83.969 72.9038 83.9974C72.7783 84.0258 72.6244 84.0424 72.4421 84.0471C72.1201 84.0566 71.8301 84.008 71.5721 83.9015C71.314 83.7926 71.1093 83.6245 70.9577 83.3973C70.8086 83.17 70.7352 82.8859 70.7376 82.545V77.2112ZM76.3919 77.8042V76.6998H82.1944V77.8042H79.9466V83.9725H78.6397V77.8042H76.3919ZM82.6898 83.9725V78.518H83.9363V79.4271H83.9931C84.0925 79.1122 84.263 78.8696 84.5044 78.6991C84.7483 78.5263 85.0265 78.4399 85.339 78.4399C85.41 78.4399 85.4893 78.4434 85.5769 78.4505C85.6668 78.4553 85.7414 78.4635 85.8006 78.4754V79.6579C85.7462 79.639 85.6597 79.6224 85.5414 79.6082C85.4254 79.5916 85.3129 79.5833 85.204 79.5833C84.9696 79.5833 84.7589 79.6342 84.5719 79.736C84.3873 79.8355 84.2417 79.974 84.1351 80.1515C84.0286 80.3291 83.9753 80.5339 83.9753 80.7659V83.9725H82.6898ZM88.8448 84.0791C88.2979 84.0791 87.8256 83.9654 87.4279 83.7382C87.0326 83.5085 86.7283 83.1842 86.5153 82.7651C86.3022 82.3437 86.1957 81.8478 86.1957 81.2772C86.1957 80.7161 86.3022 80.2237 86.5153 79.7999C86.7307 79.3738 87.0314 79.0424 87.4173 78.8056C87.8031 78.5665 88.2565 78.447 88.7773 78.447C89.1135 78.447 89.4308 78.5014 89.729 78.6103C90.0297 78.7169 90.2949 78.8826 90.5245 79.1075C90.7565 79.3324 90.9388 79.6188 91.0714 79.9669C91.204 80.3125 91.2702 80.7244 91.2702 81.2026V81.5968H86.7994V80.7303H90.038C90.0356 80.4841 89.9824 80.2651 89.8782 80.0734C89.774 79.8793 89.6284 79.7266 89.4414 79.6153C89.2567 79.504 89.0413 79.4484 88.7951 79.4484C88.5323 79.4484 88.3015 79.5123 88.1026 79.6401C87.9038 79.7656 87.7487 79.9313 87.6374 80.1373C87.5285 80.3409 87.4729 80.5646 87.4705 80.8085V81.5649C87.4705 81.8821 87.5285 82.1544 87.6445 82.3816C87.7605 82.6065 87.9227 82.7794 88.131 82.9001C88.3394 83.0185 88.5832 83.0776 88.8626 83.0776C89.0496 83.0776 89.2189 83.0516 89.3704 82.9995C89.5219 82.9451 89.6533 82.8658 89.7646 82.7616C89.8758 82.6574 89.9599 82.5284 90.0167 82.3745L91.217 82.5095C91.1412 82.8267 90.9968 83.1037 90.7837 83.3404C90.573 83.5748 90.3031 83.7571 89.9741 83.8873C89.645 84.0151 89.2686 84.0791 88.8448 84.0791ZM94.7725 84.0791C94.2257 84.0791 93.7534 83.9654 93.3556 83.7382C92.9603 83.5085 92.6561 83.1842 92.443 82.7651C92.2299 82.3437 92.1234 81.8478 92.1234 81.2772C92.1234 80.7161 92.2299 80.2237 92.443 79.7999C92.6584 79.3738 92.9591 79.0424 93.345 78.8056C93.7309 78.5665 94.1842 78.447 94.7051 78.447C95.0413 78.447 95.3585 78.5014 95.6568 78.6103C95.9574 78.7169 96.2226 78.8826 96.4522 79.1075C96.6842 79.3324 96.8665 79.6188 96.9991 79.9669C97.1317 80.3125 97.198 80.7244 97.198 81.2026V81.5968H92.7271V80.7303H95.9657C95.9634 80.4841 95.9101 80.2651 95.8059 80.0734C95.7018 79.8793 95.5562 79.7266 95.3691 79.6153C95.1845 79.504 94.969 79.4484 94.7228 79.4484C94.46 79.4484 94.2292 79.5123 94.0304 79.6401C93.8315 79.7656 93.6764 79.9313 93.5652 80.1373C93.4563 80.3409 93.4006 80.5646 93.3983 80.8085V81.5649C93.3983 81.8821 93.4563 82.1544 93.5723 82.3816C93.6883 82.6065 93.8504 82.7794 94.0588 82.9001C94.2671 83.0185 94.5109 83.0776 94.7903 83.0776C94.9773 83.0776 95.1466 83.0516 95.2981 82.9995C95.4496 82.9451 95.581 82.8658 95.6923 82.7616C95.8036 82.6574 95.8876 82.5284 95.9444 82.3745L97.1447 82.5095C97.069 82.8267 96.9245 83.1037 96.7115 83.3404C96.5008 83.5748 96.2309 83.7571 95.9018 83.8873C95.5727 84.0151 95.1963 84.0791 94.7725 84.0791Z" fill="#6ACC34"/>
<path d="M62.123 26.863L54.7942 38.0274" stroke="#6ACC34" stroke-width="2.31405" stroke-linecap="round"/>
<path d="M54.3146 37.7534L46.9858 26.589" stroke="#6ACC34" stroke-width="2.31405" stroke-linecap="round"/>
<circle cx="54.863" cy="15.8356" r="3.83562" fill="#6ACC34"/>
<circle cx="46.2328" cy="24.6027" r="3.83562" fill="#6ACC34"/>
<path d="M54.6572 17.5479V65.9725" stroke="#6ACC34" stroke-width="2.31405" stroke-linecap="round"/>
<circle cx="63.4931" cy="24.6027" r="3.83562" fill="#6ACC34"/>
<path d="M78.1504 42.411C71.7806 42.411 62.8217 40.7945 60.1367 50.7671" stroke="#6ACC34" stroke-width="2.31405" stroke-linecap="round"/>
<circle cx="81.164" cy="42.137" r="3.83562" fill="#6ACC34"/>
<circle cx="72.2597" cy="33.3699" r="3.83562" fill="#6ACC34"/>
<path d="M60.0681 58.8494V44.2603C60.0681 40.6987 62.4654 35.0138 70.6161 34.4658" stroke="#6ACC34" stroke-width="2.31405" stroke-linecap="round"/>
<path d="M31.8491 42.4111C38.219 42.4111 47.1779 40.7261 49.8628 50.6987" stroke="#6ACC34" stroke-width="2.31405" stroke-linecap="round"/>
<circle cx="3.83562" cy="3.83562" r="3.83562" transform="matrix(-1 0 0 1 32.6711 38.3014)" fill="#6ACC34"/>
<circle cx="3.83562" cy="3.83562" r="3.83562" transform="matrix(-1 0 0 1 41.5754 29.5343)" fill="#6ACC34"/>
<path d="M49.9314 58.8494V44.2603C49.9314 40.6987 47.5341 35.0138 39.3835 34.4658" stroke="#6ACC34" stroke-width="2.31405" stroke-linecap="round"/>
<g clip-path="url(#clip7_1408_65)">
<path d="M80.5253 43.4155H79.886" stroke="#0E0E0E" stroke-width="0.330579" stroke-linecap="round" stroke-linejoin="round"/>
<path d="M80.5433 42.955C80.5123 42.9217 80.4736 42.8966 80.4305 42.882C80.3874 42.8674 80.3414 42.8638 80.2966 42.8714C80.2517 42.8791 80.2095 42.8978 80.1737 42.9258C80.1379 42.9538 80.1096 42.9904 80.0914 43.032C80.0733 43.0737 80.0657 43.1193 80.0696 43.1646C80.0734 43.2099 80.0885 43.2536 80.1134 43.2916C80.1383 43.3297 80.1723 43.3609 80.2123 43.3825C80.2523 43.4042 80.2971 43.4155 80.3426 43.4155" stroke="#0E0E0E" stroke-width="0.330579" stroke-linecap="round" stroke-linejoin="round"/>
<path d="M80.251 40.6758V42.3196" stroke="#0E0E0E" stroke-width="0.330579" stroke-linecap="round" stroke-linejoin="round"/>
<path d="M81.7124 42.3195H82.0572C82.1054 42.3195 82.1528 42.3068 82.1945 42.2827C82.2363 42.2585 82.2709 42.2238 82.2949 42.182C82.3189 42.1402 82.3315 42.0928 82.3313 42.0446C82.3311 41.9964 82.3183 41.9491 82.294 41.9075L81.8951 41.2236" stroke="#0E0E0E" stroke-width="0.330579" stroke-linecap="round" stroke-linejoin="round"/>
<path d="M80.9819 42.3214V42.3196" stroke="#0E0E0E" stroke-width="0.330579" stroke-linecap="round" stroke-linejoin="round"/>
</g>
<g clip-path="url(#clip8_1408_65)">
<path d="M47.3285 23.3242H45.3193H45.8673C46.061 23.3242 46.2469 23.4012 46.3839 23.5382C46.5209 23.6752 46.5979 23.861 46.5979 24.0548C46.5979 24.2486 46.5209 24.4344 46.3839 24.5714C46.2469 24.7084 46.061 24.7854 45.8673 24.7854H45.3193L46.4152 25.8813" stroke="#0E0E0E" stroke-width="0.330579" stroke-linecap="round" stroke-linejoin="round"/>
<path d="M45.3193 24.0547H47.3285" stroke="#0E0E0E" stroke-width="0.330579" stroke-linecap="round" stroke-linejoin="round"/>
</g>
<g clip-path="url(#clip9_1408_65)">
<path d="M72.2604 34.6484V33.3698M72.2604 33.3698L71.3472 32.0913M72.2604 33.3698L73.1737 32.0913" stroke="#0E0E0E" stroke-width="0.330579" stroke-linecap="round" stroke-linejoin="round"/>
<path d="M71.5293 34.2831H72.9905" stroke="#0E0E0E" stroke-width="0.330579" stroke-linecap="round" stroke-linejoin="round"/>
<path d="M71.5293 33.5525H72.9905" stroke="#0E0E0E" stroke-width="0.330579" stroke-linecap="round" stroke-linejoin="round"/>
</g>
<g clip-path="url(#clip10_1408_65)">
<path d="M38.6893 32.4566C38.5351 32.2804 38.3398 32.1612 38.1279 32.114C37.9159 32.0668 37.6967 32.0936 37.4978 32.1911C37.2988 32.2887 37.129 32.4526 37.0096 32.6622C36.8901 32.8719 36.8264 33.1181 36.8264 33.3698C36.8264 33.6216 36.8901 33.8678 37.0096 34.0775C37.129 34.2871 37.2988 34.451 37.4978 34.5486C37.6967 34.6461 37.9159 34.6729 38.1279 34.6257C38.3398 34.5785 38.5351 34.4593 38.6893 34.2831" stroke="#0E0E0E" stroke-width="0.330579" stroke-linecap="round" stroke-linejoin="round"/>
<path d="M37.9221 33.0045H36.4609M36.4609 33.7351H37.9221" stroke="#0E0E0E" stroke-width="0.330579" stroke-linecap="round" stroke-linejoin="round"/>
</g>
<g clip-path="url(#clip11_1408_65)">
<path d="M27.3745 41.0411L27.9672 43.1157C27.9763 43.1476 27.9954 43.1757 28.0217 43.196C28.0479 43.2163 28.08 43.2276 28.1132 43.2283C28.1463 43.229 28.1789 43.2191 28.206 43.2C28.2331 43.1808 28.2534 43.1535 28.2638 43.1221L28.8357 41.4064L29.4076 43.1221C29.418 43.1535 29.4383 43.1808 29.4654 43.2C29.4925 43.2191 29.5251 43.229 29.5582 43.2283C29.5914 43.2276 29.6235 43.2163 29.6497 43.196C29.676 43.1757 29.6951 43.1476 29.7042 43.1157L30.2969 41.0411" stroke="#0E0E0E" stroke-width="0.330579" stroke-linecap="round" stroke-linejoin="round"/>
<path d="M30.4796 41.7716H27.1919" stroke="#0E0E0E" stroke-width="0.330579" stroke-linecap="round" stroke-linejoin="round"/>
<path d="M30.4796 42.5022H27.1919" stroke="#0E0E0E" stroke-width="0.330579" stroke-linecap="round" stroke-linejoin="round"/>
</g>
<g clip-path="url(#clip12_1408_65)">
<path d="M64.4063 25.7898C64.263 25.8555 64.1073 25.8895 63.9497 25.8895C63.792 25.8895 63.6363 25.8555 63.493 25.7898C63.3433 25.7381 63.184 25.7195 63.0264 25.7353C62.8687 25.7511 62.7164 25.8008 62.5798 25.8812C62.6776 25.8473 62.7638 25.7865 62.8284 25.7057C62.8931 25.6248 62.9335 25.5274 62.9451 25.4245V24.0547C62.946 23.8947 62.9995 23.7394 63.0973 23.6127C63.195 23.486 63.3317 23.395 63.4862 23.3535C63.6408 23.312 63.8047 23.3224 63.9527 23.3831C64.1008 23.4438 64.2248 23.5514 64.3058 23.6894M63.8401 24.7853H62.5615" stroke="#0E0E0E" stroke-width="0.330579" stroke-linecap="round" stroke-linejoin="round"/>
</g>
<g clip-path="url(#clip13_1408_65)">
<path d="M55.7209 15.105C55.6846 15.0019 55.6182 14.912 55.5303 14.8469C55.4424 14.7818 55.337 14.7445 55.2278 14.7397H54.4972C54.3518 14.7397 54.2125 14.7975 54.1097 14.9002C54.0069 15.003 53.9492 15.1424 53.9492 15.2877C53.9492 15.433 54.0069 15.5724 54.1097 15.6751C54.2125 15.7779 54.3518 15.8356 54.4972 15.8356H55.2278C55.3731 15.8356 55.5125 15.8934 55.6152 15.9961C55.718 16.0989 55.7757 16.2383 55.7757 16.3836C55.7757 16.5289 55.718 16.6683 55.6152 16.771C55.5125 16.8738 55.3731 16.9315 55.2278 16.9315H54.4972C54.3879 16.9268 54.2825 16.8895 54.1946 16.8244C54.1068 16.7593 54.0404 16.6694 54.004 16.5662" stroke="#0E0E0E" stroke-width="0.330579" stroke-linecap="round" stroke-linejoin="round"/>
<path d="M54.8625 14.1918V14.7397M54.8625 16.9315V17.4794" stroke="#0E0E0E" stroke-width="0.330579" stroke-linecap="round" stroke-linejoin="round"/>
</g>
<path d="M12.3977 77.8042V76.6998H18.2003V77.8042H15.9524V83.9725H14.6456V77.8042H12.3977ZM20.5476 80.7765V83.9725H19.2621V76.6998H20.5192V79.4448H20.5831C20.7109 79.1371 20.9086 78.8944 21.1761 78.7169C21.446 78.5369 21.7893 78.447 22.206 78.447C22.5848 78.447 22.915 78.5263 23.1967 78.6849C23.4785 78.8435 23.6963 79.0755 23.8501 79.3809C24.0064 79.6863 24.0845 80.0592 24.0845 80.4995V83.9725H22.799V80.6984C22.799 80.3314 22.7043 80.0462 22.5149 79.8426C22.3279 79.6366 22.0651 79.5336 21.7266 79.5336C21.4993 79.5336 21.2957 79.5833 21.1158 79.6828C20.9382 79.7798 20.7985 79.9207 20.6967 80.1053C20.5973 80.29 20.5476 80.5137 20.5476 80.7765ZM27.8097 84.0791C27.2628 84.0791 26.7905 83.9654 26.3928 83.7382C25.9974 83.5085 25.6932 83.1842 25.4801 82.7651C25.267 82.3437 25.1605 81.8478 25.1605 81.2772C25.1605 80.7161 25.267 80.2237 25.4801 79.7999C25.6955 79.3738 25.9962 79.0424 26.3821 78.8056C26.768 78.5665 27.2214 78.447 27.7422 78.447C28.0784 78.447 28.3956 78.5014 28.6939 78.6103C28.9946 78.7169 29.2597 78.8826 29.4893 79.1075C29.7214 79.3324 29.9036 79.6188 30.0362 79.9669C30.1688 80.3125 30.2351 80.7244 30.2351 81.2026V81.5968H25.7642V80.7303H29.0028C29.0005 80.4841 28.9472 80.2651 28.843 80.0734C28.7389 79.8793 28.5933 79.7266 28.4062 79.6153C28.2216 79.504 28.0062 79.4484 27.7599 79.4484C27.4972 79.4484 27.2663 79.5123 27.0675 79.6401C26.8686 79.7656 26.7135 79.9313 26.6023 80.1373C26.4934 80.3409 26.4377 80.5646 26.4354 80.8085V81.5649C26.4354 81.8821 26.4934 82.1544 26.6094 82.3816C26.7254 82.6065 26.8875 82.7794 27.0959 82.9001C27.3042 83.0185 27.5481 83.0776 27.8274 83.0776C28.0144 83.0776 28.1837 83.0516 28.3352 82.9995C28.4867 82.9451 28.6181 82.8658 28.7294 82.7616C28.8407 82.6574 28.9247 82.5284 28.9815 82.3745L30.1818 82.5095C30.1061 82.8267 29.9616 83.1037 29.7486 83.3404C29.5379 83.5748 29.268 83.7571 28.9389 83.8873C28.6098 84.0151 28.2334 84.0791 27.8097 84.0791ZM40.085 79.1536H38.7569C38.719 78.9358 38.6492 78.7429 38.5474 78.5748C38.4456 78.4044 38.319 78.2599 38.1674 78.1416C38.0159 78.0232 37.8431 77.9344 37.649 77.8752C37.4572 77.8137 37.2501 77.7829 37.0275 77.7829C36.6322 77.7829 36.2818 77.8823 35.9764 78.0812C35.671 78.2777 35.4319 78.5665 35.2591 78.9477C35.0862 79.3265 34.9998 79.7893 34.9998 80.3362C34.9998 80.8925 35.0862 81.3613 35.2591 81.7424C35.4342 82.1212 35.6734 82.4077 35.9764 82.6018C36.2818 82.7936 36.631 82.8894 37.024 82.8894C37.2418 82.8894 37.4454 82.861 37.6348 82.8042C37.8265 82.745 37.9982 82.6586 38.1497 82.545C38.3036 82.4313 38.4326 82.2917 38.5368 82.1259C38.6433 81.9602 38.7167 81.7708 38.7569 81.5578L40.085 81.5649C40.0353 81.9105 39.9276 82.2348 39.7619 82.5379C39.5985 82.8409 39.3843 83.1084 39.1191 83.3404C38.854 83.5701 38.5439 83.75 38.1887 83.8802C37.8336 84.008 37.4395 84.072 37.0062 84.072C36.367 84.072 35.7965 83.924 35.2946 83.6281C34.7927 83.3321 34.3973 82.9048 34.1085 82.3461C33.8197 81.7874 33.6752 81.1174 33.6752 80.3362C33.6752 79.5526 33.8208 78.8826 34.112 78.3262C34.4032 77.7675 34.7998 77.3402 35.3017 77.0443C35.8036 76.7483 36.3717 76.6004 37.0062 76.6004C37.411 76.6004 37.7875 76.6572 38.1355 76.7708C38.4835 76.8845 38.7936 77.0514 39.0659 77.2715C39.3381 77.4893 39.5618 77.7569 39.737 78.0741C39.9146 78.389 40.0306 78.7488 40.085 79.1536ZM42.8043 84.0826C42.4587 84.0826 42.1474 84.0211 41.8704 83.898C41.5958 83.7725 41.378 83.5878 41.217 83.344C41.0584 83.1001 40.979 82.7995 40.979 82.442C40.979 82.1342 41.0359 81.8797 41.1495 81.6785C41.2631 81.4773 41.4182 81.3163 41.6147 81.1955C41.8112 81.0748 42.0326 80.9837 42.2788 80.9221C42.5273 80.8582 42.7842 80.812 43.0494 80.7836C43.369 80.7505 43.6282 80.7209 43.8271 80.6948C44.0259 80.6664 44.1703 80.6238 44.2603 80.567C44.3526 80.5078 44.3988 80.4167 44.3988 80.2936V80.2723C44.3988 80.0047 44.3195 79.7976 44.1609 79.6508C44.0022 79.504 43.7738 79.4306 43.4755 79.4306C43.1606 79.4306 42.9109 79.4993 42.7262 79.6366C42.5439 79.7739 42.4208 79.9361 42.3569 80.1231L41.1566 79.9526C41.2513 79.6212 41.4076 79.3442 41.6254 79.1217C41.8432 78.8968 42.1095 78.7287 42.4244 78.6174C42.7392 78.5038 43.0872 78.447 43.4684 78.447C43.7312 78.447 43.9928 78.4777 44.2532 78.5393C44.5136 78.6008 44.7515 78.7026 44.967 78.8447C45.1824 78.9844 45.3552 79.1749 45.4854 79.4164C45.618 79.6579 45.6843 79.9597 45.6843 80.322V83.9725H44.4485V83.2232H44.4059C44.3278 83.3748 44.2177 83.5168 44.0756 83.6494C43.936 83.7796 43.7596 83.8849 43.5465 83.9654C43.3358 84.0436 43.0884 84.0826 42.8043 84.0826ZM43.1381 83.138C43.3962 83.138 43.6199 83.0871 43.8093 82.9853C43.9987 82.8812 44.1443 82.7438 44.2461 82.5734C44.3503 82.4029 44.4023 82.2171 44.4023 82.0159V81.3731C44.3621 81.4062 44.2934 81.437 44.1964 81.4654C44.1017 81.4938 43.9951 81.5187 43.8768 81.54C43.7584 81.5613 43.6412 81.5803 43.5252 81.5968C43.4092 81.6134 43.3086 81.6276 43.2234 81.6394C43.0316 81.6655 42.86 81.7081 42.7085 81.7673C42.5569 81.8265 42.4374 81.9093 42.3498 82.0159C42.2622 82.12 42.2184 82.255 42.2184 82.4207C42.2184 82.6574 42.3048 82.8362 42.4776 82.9569C42.6504 83.0776 42.8706 83.138 43.1381 83.138ZM49.7006 78.518V79.5123H46.565V78.518H49.7006ZM47.3391 77.2112H48.6246V82.3319C48.6246 82.5047 48.6507 82.6373 48.7028 82.7296C48.7572 82.8196 48.8282 82.8812 48.9158 82.9143C49.0034 82.9474 49.1005 82.964 49.207 82.964C49.2875 82.964 49.3609 82.9581 49.4272 82.9463C49.4959 82.9344 49.5479 82.9238 49.5835 82.9143L49.8001 83.9193C49.7314 83.9429 49.6332 83.969 49.5053 83.9974C49.3799 84.0258 49.226 84.0424 49.0437 84.0471C48.7217 84.0566 48.4317 84.008 48.1737 83.9015C47.9156 83.7926 47.7108 83.6245 47.5593 83.3973C47.4102 83.17 47.3368 82.8859 47.3391 82.545V77.2112ZM52.3453 84.0826C51.9997 84.0826 51.6884 84.0211 51.4114 83.898C51.1368 83.7725 50.919 83.5878 50.758 83.344C50.5994 83.1001 50.5201 82.7995 50.5201 82.442C50.5201 82.1342 50.5769 81.8797 50.6905 81.6785C50.8042 81.4773 50.9592 81.3163 51.1557 81.1955C51.3522 81.0748 51.5736 80.9837 51.8198 80.9221C52.0684 80.8582 52.3252 80.812 52.5904 80.7836C52.91 80.7505 53.1692 80.7209 53.3681 80.6948C53.5669 80.6664 53.7114 80.6238 53.8013 80.567C53.8936 80.5078 53.9398 80.4167 53.9398 80.2936V80.2723C53.9398 80.0047 53.8605 79.7976 53.7019 79.6508C53.5433 79.504 53.3148 79.4306 53.0165 79.4306C52.7016 79.4306 52.4519 79.4993 52.2672 79.6366C52.0849 79.7739 51.9618 79.9361 51.8979 80.1231L50.6976 79.9526C50.7923 79.6212 50.9486 79.3442 51.1664 79.1217C51.3842 78.8968 51.6505 78.7287 51.9654 78.6174C52.2802 78.5038 52.6283 78.447 53.0094 78.447C53.2722 78.447 53.5338 78.4777 53.7942 78.5393C54.0546 78.6008 54.2926 78.7026 54.508 78.8447C54.7234 78.9844 54.8962 79.1749 55.0265 79.4164C55.159 79.6579 55.2253 79.9597 55.2253 80.322V83.9725H53.9895V83.2232H53.9469C53.8688 83.3748 53.7587 83.5168 53.6167 83.6494C53.477 83.7796 53.3006 83.8849 53.0875 83.9654C52.8768 84.0436 52.6294 84.0826 52.3453 84.0826ZM52.6792 83.138C52.9372 83.138 53.1609 83.0871 53.3503 82.9853C53.5397 82.8812 53.6853 82.7438 53.7871 82.5734C53.8913 82.4029 53.9434 82.2171 53.9434 82.0159V81.3731C53.9031 81.4062 53.8345 81.437 53.7374 81.4654C53.6427 81.4938 53.5362 81.5187 53.4178 81.54C53.2994 81.5613 53.1822 81.5803 53.0662 81.5968C52.9502 81.6134 52.8496 81.6276 52.7644 81.6394C52.5726 81.6655 52.401 81.7081 52.2495 81.7673C52.098 81.8265 51.9784 81.9093 51.8908 82.0159C51.8032 82.12 51.7594 82.255 51.7594 82.4207C51.7594 82.6574 51.8458 82.8362 52.0186 82.9569C52.1915 83.0776 52.4116 83.138 52.6792 83.138ZM57.8034 76.6998V83.9725H56.5179V76.6998H57.8034ZM59.9244 86.018C59.7492 86.018 59.587 86.0038 59.4379 85.9754C59.2911 85.9493 59.1739 85.9186 59.0863 85.883L59.3846 84.8816C59.5716 84.9361 59.7385 84.9621 59.8853 84.9598C60.0321 84.9574 60.1611 84.9112 60.2724 84.8213C60.386 84.7337 60.4819 84.5869 60.56 84.3809L60.6701 84.0862L58.6921 78.518H60.0558L61.3129 82.6373H61.3697L62.6303 78.518H63.9975L61.8136 84.633C61.7118 84.9219 61.5768 85.1693 61.4087 85.3752C61.2406 85.5836 61.0347 85.7422 60.7908 85.8511C60.5494 85.9624 60.2605 86.018 59.9244 86.018ZM69.1982 79.9598L68.0263 80.0876C67.9931 79.9692 67.9351 79.858 67.8523 79.7538C67.7718 79.6496 67.6629 79.5656 67.5256 79.5017C67.3883 79.4377 67.2202 79.4058 67.0213 79.4058C66.7538 79.4058 66.5289 79.4638 66.3466 79.5798C66.1667 79.6958 66.0779 79.8461 66.0803 80.0308C66.0779 80.1894 66.1359 80.3184 66.2543 80.4178C66.375 80.5173 66.5739 80.599 66.8509 80.6629L67.7812 80.8617C68.2973 80.973 68.6809 81.1494 68.9318 81.3909C69.1851 81.6323 69.313 81.9484 69.3153 82.339C69.313 82.6823 69.2124 82.9853 69.0135 83.2481C68.817 83.5085 68.5436 83.7121 68.1932 83.8589C67.8428 84.0057 67.4403 84.0791 66.9858 84.0791C66.3182 84.0791 65.7808 83.9394 65.3736 83.66C64.9664 83.3783 64.7237 82.9865 64.6456 82.4846L65.8991 82.3639C65.956 82.6101 66.0767 82.7959 66.2614 82.9214C66.446 83.0469 66.6863 83.1096 66.9822 83.1096C67.2876 83.1096 67.5327 83.0469 67.7173 82.9214C67.9044 82.7959 67.9979 82.6409 67.9979 82.4562C67.9979 82.2999 67.9375 82.1709 67.8168 82.0691C67.6984 81.9673 67.5137 81.8892 67.2628 81.8347L66.3324 81.6394C65.8092 81.5305 65.4221 81.3471 65.1712 81.089C64.9202 80.8286 64.7959 80.4995 64.7983 80.1018C64.7959 79.7656 64.8871 79.4744 65.0717 79.2282C65.2588 78.9796 65.518 78.7879 65.8494 78.6529C66.1832 78.5156 66.5679 78.447 67.0036 78.447C67.6428 78.447 68.1458 78.5831 68.5128 78.8553C68.8821 79.1276 69.1106 79.4957 69.1982 79.9598ZM73.0991 78.518V79.5123H69.9634V78.518H73.0991ZM70.7376 77.2112H72.0231V82.3319C72.0231 82.5047 72.0491 82.6373 72.1012 82.7296C72.1557 82.8196 72.2267 82.8812 72.3143 82.9143C72.4019 82.9474 72.4989 82.964 72.6055 82.964C72.686 82.964 72.7594 82.9581 72.8256 82.9463C72.8943 82.9344 72.9464 82.9238 72.9819 82.9143L73.1985 83.9193C73.1299 83.9429 73.0316 83.969 72.9038 83.9974C72.7783 84.0258 72.6244 84.0424 72.4421 84.0471C72.1201 84.0566 71.8301 84.008 71.5721 83.9015C71.314 83.7926 71.1093 83.6245 70.9577 83.3973C70.8086 83.17 70.7352 82.8859 70.7376 82.545V77.2112ZM76.3919 77.8042V76.6998H82.1944V77.8042H79.9466V83.9725H78.6397V77.8042H76.3919ZM82.6898 83.9725V78.518H83.9363V79.4271H83.9931C84.0925 79.1122 84.263 78.8696 84.5044 78.6991C84.7483 78.5263 85.0265 78.4399 85.339 78.4399C85.41 78.4399 85.4893 78.4434 85.5769 78.4505C85.6668 78.4553 85.7414 78.4635 85.8006 78.4754V79.6579C85.7462 79.639 85.6597 79.6224 85.5414 79.6082C85.4254 79.5916 85.3129 79.5833 85.204 79.5833C84.9696 79.5833 84.7589 79.6342 84.5719 79.736C84.3873 79.8355 84.2417 79.974 84.1351 80.1515C84.0286 80.3291 83.9753 80.5339 83.9753 80.7659V83.9725H82.6898ZM88.8448 84.0791C88.2979 84.0791 87.8256 83.9654 87.4279 83.7382C87.0326 83.5085 86.7283 83.1842 86.5153 82.7651C86.3022 82.3437 86.1957 81.8478 86.1957 81.2772C86.1957 80.7161 86.3022 80.2237 86.5153 79.7999C86.7307 79.3738 87.0314 79.0424 87.4173 78.8056C87.8031 78.5665 88.2565 78.447 88.7773 78.447C89.1135 78.447 89.4308 78.5014 89.729 78.6103C90.0297 78.7169 90.2949 78.8826 90.5245 79.1075C90.7565 79.3324 90.9388 79.6188 91.0714 79.9669C91.204 80.3125 91.2702 80.7244 91.2702 81.2026V81.5968H86.7994V80.7303H90.038C90.0356 80.4841 89.9824 80.2651 89.8782 80.0734C89.774 79.8793 89.6284 79.7266 89.4414 79.6153C89.2567 79.504 89.0413 79.4484 88.7951 79.4484C88.5323 79.4484 88.3015 79.5123 88.1026 79.6401C87.9038 79.7656 87.7487 79.9313 87.6374 80.1373C87.5285 80.3409 87.4729 80.5646 87.4705 80.8085V81.5649C87.4705 81.8821 87.5285 82.1544 87.6445 82.3816C87.7605 82.6065 87.9227 82.7794 88.131 82.9001C88.3394 83.0185 88.5832 83.0776 88.8626 83.0776C89.0496 83.0776 89.2189 83.0516 89.3704 82.9995C89.5219 82.9451 89.6533 82.8658 89.7646 82.7616C89.8758 82.6574 89.9599 82.5284 90.0167 82.3745L91.217 82.5095C91.1412 82.8267 90.9968 83.1037 90.7837 83.3404C90.573 83.5748 90.3031 83.7571 89.9741 83.8873C89.645 84.0151 89.2686 84.0791 88.8448 84.0791ZM94.7725 84.0791C94.2257 84.0791 93.7534 83.9654 93.3556 83.7382C92.9603 83.5085 92.6561 83.1842 92.443 82.7651C92.2299 82.3437 92.1234 81.8478 92.1234 81.2772C92.1234 80.7161 92.2299 80.2237 92.443 79.7999C92.6584 79.3738 92.9591 79.0424 93.345 78.8056C93.7309 78.5665 94.1842 78.447 94.7051 78.447C95.0413 78.447 95.3585 78.5014 95.6568 78.6103C95.9574 78.7169 96.2226 78.8826 96.4522 79.1075C96.6842 79.3324 96.8665 79.6188 96.9991 79.9669C97.1317 80.3125 97.198 80.7244 97.198 81.2026V81.5968H92.7271V80.7303H95.9657C95.9634 80.4841 95.9101 80.2651 95.8059 80.0734C95.7018 79.8793 95.5562 79.7266 95.3691 79.6153C95.1845 79.504 94.969 79.4484 94.7228 79.4484C94.46 79.4484 94.2292 79.5123 94.0304 79.6401C93.8315 79.7656 93.6764 79.9313 93.5652 80.1373C93.4563 80.3409 93.4006 80.5646 93.3983 80.8085V81.5649C93.3983 81.8821 93.4563 82.1544 93.5723 82.3816C93.6883 82.6065 93.8504 82.7794 94.0588 82.9001C94.2671 83.0185 94.5109 83.0776 94.7903 83.0776C94.9773 83.0776 95.1466 83.0516 95.2981 82.9995C95.4496 82.9451 95.581 82.8658 95.6923 82.7616C95.8036 82.6574 95.8876 82.5284 95.9444 82.3745L97.1447 82.5095C97.069 82.8267 96.9245 83.1037 96.7115 83.3404C96.5008 83.5748 96.2309 83.7571 95.9018 83.8873C95.5727 84.0151 95.1963 84.0791 94.7725 84.0791Z" fill="#6ACC34"/>
<defs>
<clipPath id="clip0_1408_65">
<rect width="4.38356" height="4.38356" fill="white" transform="translate(78.9727 39.9452)"/>
</clipPath>
<clipPath id="clip1_1408_65">
<rect width="4.38356" height="4.38356" fill="white" transform="translate(44.0408 22.4109)"/>
</clipPath>
<clipPath id="clip2_1408_65">
<rect width="4.38356" height="4.38356" fill="white" transform="translate(70.0684 31.1781)"/>
</clipPath>
<clipPath id="clip3_1408_65">
<rect width="4.38356" height="4.38356" fill="white" transform="translate(35.5479 31.1781)"/>
</clipPath>
<clipPath id="clip4_1408_65">
<rect width="4.38356" height="4.38356" fill="white" transform="translate(26.6436 39.9452)"/>
</clipPath>
<clipPath id="clip5_1408_65">
<rect width="4.38356" height="4.38356" fill="white" transform="translate(61.3013 22.4109)"/>
</clipPath>
<clipPath id="clip6_1408_65">
<rect width="4.38356" height="4.38356" fill="white" transform="translate(52.6709 13.6438)"/>
</clipPath>
<clipPath id="clip7_1408_65">
<rect width="4.38356" height="4.38356" fill="white" transform="translate(78.9727 39.9452)"/>
</clipPath>
<clipPath id="clip8_1408_65">
<rect width="4.38356" height="4.38356" fill="white" transform="translate(44.0408 22.4109)"/>
</clipPath>
<clipPath id="clip9_1408_65">
<rect width="4.38356" height="4.38356" fill="white" transform="translate(70.0684 31.1781)"/>
</clipPath>
<clipPath id="clip10_1408_65">
<rect width="4.38356" height="4.38356" fill="white" transform="translate(35.5479 31.1781)"/>
</clipPath>
<clipPath id="clip11_1408_65">
<rect width="4.38356" height="4.38356" fill="white" transform="translate(26.6436 39.9452)"/>
</clipPath>
<clipPath id="clip12_1408_65">
<rect width="4.38356" height="4.38356" fill="white" transform="translate(61.3013 22.4109)"/>
</clipPath>
<clipPath id="clip13_1408_65">
<rect width="4.38356" height="4.38356" fill="white" transform="translate(52.6709 13.6438)"/>
</clipPath>
</defs>
</svg>
